# xmcd CD database file
#
# Track frame offsets:
#	150
#	8802
#	18578
#	27763
#	39814
#	50475
#	61376
#	94926
#	106654
#	115586
#	125780
#	137468
#	149763
#	164663
#	188784
#
# Disc length: 2737 seconds
#
# Revision: 0
# Processed by: cddbd v1.5.1PL0 Copyright (c) Steve Scherf et al.
# Submitted via: CDex 1.51
#
DISCID=c90aaf0f
DTITLE=David Allan Coe - For the Soul and For the Mind Demo's of '71- '74
DYEAR=2005
DGENRE=Country
TTITLE0=1. This Old Truck
TTITLE1=2. Teardrops and Wine
TTITLE2=3. So Tried Of Honky Tonks And Wine
TTITLE3=4. The Bottle
TTITLE4=5. Love Left A Memory
TTITLE5=6. When Jesus Was A Rumor
TTITLE6=7. No Place Left To Run
TTITLE7=8. My Foolish Heart To Blame
TTITLE8=9. The Great Northern
TTITLE9=10. She'll Be There
TTITLE10=11. Bottled Memories
TTITLE11=12. For Pete's Sake
TTITLE12=13. For The Soul And The Mind
TTITLE13=14. A Cold Lump Of Coal
TTITLE14=15. Don't You Cry
EXTD=YEAR: 2005
EXTT0=
EXTT1=
EXTT2=
EXTT3=
EXTT4=
EXTT5=
EXTT6=
EXTT7=
EXTT8=
EXTT9=
EXTT10=
EXTT11=
EXTT12=
EXTT13=
EXTT14=
PLAYORDER=
